<?xml version="1.0" standalone="no"?>
<!DOCTYPE svg PUBLIC "-//W3C//DTD SVG 20010904//EN"
 "http://www.w3.org/TR/2001/REC-SVG-20010904/DTD/svg10.dtd">
<svg version="1.0" xmlns="http://www.w3.org/2000/svg"
 width="373.000000pt" height="373.000000pt" viewBox="0 0 373.000000 373.000000"
 preserveAspectRatio="xMidYMid meet">
<metadata>
Created by potrace 1.11, written by Peter Selinger 2001-2013
</metadata>
<g transform="translate(0.000000,373.000000) scale(0.100000,-0.100000)"
fill="#000000" stroke="none">
<path d="M0 2969 c0 -504 3 -758 10 -754 5 3 10 2 10 -4 0 -5 -4 -13 -10 -16
-6 -4 -10 -394 -10 -1100 l0 -1095 63 0 63 0 -3 82 c-1 46 -7 120 -13 166 -13
96 -9 115 25 130 28 13 32 27 10 36 -17 6 -20 36 -4 36 7 0 18 -8 26 -17 10
-13 16 -15 19 -5 3 6 10 12 15 12 16 0 10 -30 -11 -47 -11 -10 -15 -20 -10
-23 7 -4 6 -18 -1 -39 -9 -26 -9 -35 1 -41 7 -4 9 -13 5 -20 -4 -6 -4 -70 0
-141 l7 -129 129 0 c96 0 129 3 129 13 0 9 2 9 9 -1 5 -9 26 -12 67 -10 55 3
59 5 62 28 2 14 6 32 9 40 3 8 5 23 4 33 -2 12 6 21 18 24 20 5 20 6 4 19 -17
12 -17 13 1 27 10 8 16 19 12 25 -3 5 -1 12 5 14 6 2 15 24 20 48 21 117 44
190 59 187 9 -1 15 6 15 18 0 13 7 20 20 20 16 0 20 -7 19 -30 0 -18 -5 -29
-12 -28 -7 2 -12 -3 -12 -10 0 -6 -3 -23 -7 -36 -4 -16 -2 -22 4 -18 6 4 14 0
17 -9 8 -22 28 -6 21 17 -7 21 17 63 29 52 4 -4 15 -8 24 -8 14 0 17 -13 20
-88 3 -81 1 -87 -17 -87 -15 0 -20 8 -23 33 -2 19 -8 31 -15 30 -7 -2 -13 2
-13 7 0 6 -4 10 -10 10 -14 0 -13 -43 1 -57 8 -8 8 -21 1 -45 -6 -18 -13 -68
-15 -111 -2 -42 -7 -80 -11 -84 -18 -18 3 -23 93 -23 l99 0 1 136 c1 75 3 140
6 144 3 4 0 58 -7 119 -9 92 -13 108 -23 94 -11 -15 -13 -13 -20 15 -4 18 -3
38 3 45 5 7 17 36 26 65 16 51 16 56 0 79 -16 25 -15 27 4 42 11 9 23 27 25
41 3 14 6 -2 6 -35 15 -606 16 -610 34 -639 10 -15 24 -29 32 -32 8 -3 23 -21
34 -40 l20 -34 89 0 c68 0 93 4 102 15 12 15 68 13 95 -4 16 -9 65 -9 65 0 0
5 9 9 20 9 11 0 20 -4 20 -10 0 -6 116 -10 312 -10 l312 0 28 27 c31 29 36 46
13 37 -9 -4 -15 0 -15 9 0 25 20 31 35 11 19 -27 42 -4 39 38 -4 52 15 166 42
247 26 79 30 111 14 111 -14 0 -95 -88 -95 -103 0 -7 -12 -28 -27 -47 -14 -19
-29 -44 -32 -55 -4 -11 -22 -31 -41 -45 -19 -14 -35 -31 -35 -38 0 -6 -11 -22
-25 -34 -13 -11 -22 -25 -19 -29 2 -4 -4 -13 -15 -18 -33 -18 -40 -13 -28 19
9 25 8 36 -11 72 -13 24 -20 35 -18 26 4 -14 0 -18 -18 -18 -12 0 -32 -10 -44
-22 -11 -13 -26 -27 -32 -33 -6 -5 -17 -19 -25 -30 -12 -18 -14 -19 -20 -3 -5
12 4 29 27 54 55 60 71 74 80 68 4 -3 8 1 8 9 0 8 10 21 23 30 33 22 87 73 87
81 0 9 57 91 83 120 9 11 17 23 17 27 0 4 9 11 20 14 11 3 20 13 20 21 0 8 5
14 10 14 6 0 10 4 10 10 0 17 64 90 79 90 5 0 11 -9 14 -20 3 -11 1 -20 -3
-20 -13 0 -79 -44 -80 -52 0 -5 7 -8 15 -8 8 0 15 5 15 10 0 6 7 10 15 10 9 0
28 11 43 25 15 14 30 25 34 25 13 0 48 34 48 47 0 14 32 71 76 133 25 36 32
58 37 112 l5 68 -34 12 c-19 7 -34 15 -34 19 0 7 -66 49 -76 49 -3 0 -1 -8 5
-17 5 -10 12 -57 16 -105 7 -78 5 -92 -16 -137 -12 -28 -30 -53 -40 -56 -11
-4 -16 -12 -12 -21 3 -7 0 -14 -6 -14 -6 0 -11 11 -11 25 0 14 5 25 10 25 6 0
10 6 9 12 -3 28 2 36 26 42 17 4 25 13 25 28 0 21 0 21 -15 2 -13 -17 -13 -15
-4 21 6 21 9 67 7 102 -3 52 -9 68 -33 93 -34 36 -45 32 -19 -7 10 -15 17 -34
16 -40 -2 -7 2 -13 8 -13 17 0 12 -103 -6 -128 -9 -13 -14 -26 -11 -29 3 -3
-3 -20 -14 -39 -10 -19 -28 -50 -39 -70 -24 -41 -19 -56 9 -30 15 13 21 14 27
5 7 -12 -37 -57 -80 -81 -16 -8 -18 -7 -13 6 4 9 1 16 -6 16 -7 0 -4 7 6 15
13 9 17 20 12 34 -4 13 -2 21 5 21 6 0 24 27 39 60 16 33 32 56 36 52 4 -4 1
3 -6 15 -18 30 -37 29 -32 -1 6 -28 -12 -43 -32 -26 -11 9 -18 4 -35 -27 -27
-51 -42 -73 -63 -97 -10 -11 -20 -31 -23 -43 -4 -13 -12 -23 -19 -23 -9 0 -11
-8 -7 -22 5 -20 3 -21 -10 -10 -12 10 -17 10 -20 1 -2 -7 -17 16 -34 49 -17
38 -34 60 -41 57 -16 -6 -16 -5 3 33 16 33 28 40 39 22 7 -12 45 -14 45 -2 0
5 11 12 24 18 28 10 111 107 96 112 -11 4 -67 -36 -120 -85 -34 -32 -50 -40
-50 -25 1 4 40 39 87 77 124 101 130 108 152 193 20 71 -15 262 -48 262 -15 0
-171 -352 -171 -387 0 -7 -5 -13 -10 -13 -6 0 -10 -6 -9 -12 6 -36 -73 -133
-133 -164 -15 -8 -25 -20 -23 -27 6 -14 -31 -40 -45 -32 -5 3 -7 12 -3 20 4
12 -3 15 -31 15 -20 0 -36 -5 -36 -11 0 -6 7 -9 15 -6 8 4 17 2 20 -3 4 -6 -9
-10 -29 -10 -20 0 -36 -5 -36 -11 0 -5 -5 -7 -11 -4 -6 5 -4 12 8 20 16 12 15
14 -14 13 -18 -1 -33 -5 -33 -10 0 -4 -4 -8 -10 -8 -5 0 -7 6 -4 14 3 9 -4 19
-17 26 -17 10 -19 14 -8 21 11 7 10 9 -3 9 -10 0 -18 7 -18 15 0 8 -4 15 -8
15 -4 0 -13 14 -19 30 -6 17 -7 28 -2 24 31 -19 -13 73 -49 102 l-26 22 72 7
c40 4 72 11 72 16 0 5 3 8 8 8 31 -5 54 2 48 17 -4 11 -1 14 12 12 9 -1 23 1
30 6 10 6 9 11 -5 22 -14 12 -11 12 14 -1 25 -12 42 -13 74 -6 23 5 45 14 48
19 3 6 18 13 33 17 14 4 44 22 65 41 21 19 45 34 53 34 13 0 13 1 0 10 -13 9
-13 10 1 10 8 0 25 9 37 20 12 11 25 20 29 20 5 0 33 27 63 61 30 34 68 68 85
76 l30 16 -20 -23 -20 -23 22 12 c12 6 24 19 28 30 6 19 100 111 114 111 9 0
46 41 60 68 6 12 20 23 30 27 11 3 18 12 15 19 -3 8 -22 -4 -54 -36 l-50 -49
6 33 5 33 -16 -29 c-13 -22 -19 -26 -26 -15 -6 10 -9 10 -9 2 0 -7 -5 -13 -11
-13 -6 0 -8 10 -5 23 l6 22 -11 -23 c-13 -24 -42 -31 -33 -8 3 8 1 17 -5 20
-6 4 -13 -4 -16 -17 -6 -23 -42 -53 -53 -43 -3 3 0 6 6 6 7 0 12 5 12 11 0 16
-20 0 -30 -25 -7 -18 -9 -15 -9 15 -1 43 -21 56 -45 28 -9 -11 -20 -17 -25
-14 -13 7 -24 -45 -12 -59 6 -7 6 -17 1 -26 -8 -12 -10 -10 -10 8 0 29 -5 28
-40 -10 -17 -18 -28 -26 -24 -17 3 10 1 20 -5 24 -7 3 -11 -2 -11 -14 0 -11
-5 -23 -10 -26 -6 -3 -10 0 -10 7 0 9 -3 9 -10 -2 -9 -13 -11 -13 -20 0 -5 8
-10 23 -10 33 0 19 -11 22 -27 6 -8 -8 -13 -8 -17 0 -4 6 -16 11 -27 11 -10 0
-19 5 -19 10 0 6 -7 10 -15 10 -8 0 -15 5 -15 11 0 5 -4 8 -9 4 -5 -3 -12 -1
-16 5 -4 6 -11 7 -17 4 -6 -4 -8 1 -4 13 5 17 1 22 -24 27 -26 5 -30 9 -25 26
4 11 2 20 -4 20 -6 0 -11 -4 -11 -10 0 -5 -5 -10 -11 -10 -5 0 -7 5 -4 10 3 6
-1 13 -9 16 -9 3 -16 13 -16 21 0 12 -8 14 -36 10 -30 -5 -37 -3 -41 12 -3 10
-16 24 -30 30 l-25 12 26 20 c27 21 35 42 14 34 -15 -6 -41 42 -28 50 4 3 8
21 8 41 0 39 39 92 49 66 4 -10 8 -8 18 5 13 17 14 17 20 -2 28 -84 97 -195
123 -195 7 0 15 -13 18 -29 8 -39 43 -52 126 -49 60 2 64 3 49 18 -9 9 -36 28
-61 41 -51 26 -80 48 -80 60 0 11 60 -8 80 -26 18 -16 110 -47 110 -37 0 4
-29 19 -63 34 -64 27 -149 97 -161 132 -5 16 -3 17 21 11 16 -3 48 -19 73 -34
25 -15 77 -42 115 -60 39 -18 78 -40 88 -49 17 -15 16 -16 -10 -27 -27 -12
-27 -12 14 -12 35 0 47 -6 68 -32 15 -17 30 -29 35 -26 4 3 13 -2 20 -10 18
-21 32 -18 54 11 26 37 32 96 11 117 -21 22 -32 21 -38 0 -3 -12 -5 -10 -6 7
-1 27 -34 63 -47 52 -4 -4 -5 3 -2 15 5 16 2 20 -10 16 -12 -5 -14 -2 -8 13 9
21 9 26 2 71 -4 29 -2 32 25 38 17 4 28 12 26 18 -6 20 -51 37 -79 31 -23 -5
-33 0 -55 27 -16 18 -28 35 -28 38 -4 40 -43 69 -84 62 -7 -1 -10 2 -7 7 3 5
-1 15 -9 22 -30 25 -18 41 25 34 27 -5 40 -3 40 5 0 6 17 30 39 54 48 53 80
110 51 92 -6 -3 -10 -4 -10 -1 0 9 111 171 122 177 31 19 -48 131 -133 187
-58 38 -85 58 -104 77 -23 23 -71 53 -97 62 -21 6 -24 23 -4 23 27 0 39 40 46
153 0 4 9 7 20 7 12 0 17 5 14 14 -6 14 30 42 68 51 15 4 24 14 25 27 2 24 35
51 44 36 3 -5 8 -1 11 9 4 15 14 18 54 16 26 -1 59 -5 71 -8 32 -8 137 -56
143 -65 3 -4 25 -13 50 -20 25 -6 68 -22 95 -35 28 -13 76 -36 108 -50 31 -15
57 -31 57 -36 0 -5 5 -9 10 -9 12 0 100 -85 100 -97 0 -4 9 -16 20 -28 27 -28
60 -120 60 -165 0 -58 -27 -192 -49 -240 -11 -25 -25 -75 -30 -111 -12 -74
-25 -115 -70 -217 -17 -39 -31 -76 -31 -84 0 -12 16 14 92 149 16 29 33 55 38
58 22 14 103 209 114 276 4 21 13 42 21 49 8 7 15 16 15 21 0 22 63 109 80
109 9 0 23 7 30 15 7 8 9 15 5 15 -11 0 35 35 71 53 37 19 114 95 114 112 0 7
5 15 11 17 6 2 12 25 14 52 4 61 20 79 30 34 4 -18 7 -41 6 -50 -1 -10 3 -18
9 -18 13 0 4 -58 -11 -74 -5 -6 -9 -23 -9 -39 0 -25 -19 -78 -53 -146 -7 -13
-29 -42 -49 -65 -25 -27 -38 -51 -38 -69 0 -15 -6 -30 -14 -33 -17 -7 -9 -44
10 -44 8 0 14 5 14 11 0 13 101 119 113 119 5 0 5 -4 2 -10 -3 -5 -2 -10 4
-10 12 0 -11 -53 -53 -123 -36 -60 -24 -81 23 -41 61 51 111 30 111 -48 0 -27
6 -61 14 -76 7 -15 18 -65 24 -112 11 -80 8 -135 -14 -242 -5 -23 -2 -28 14
-28 10 0 24 -10 30 -22 19 -40 35 -149 37 -258 1 -75 6 -116 19 -143 10 -24
16 -61 16 -100 0 -34 -1 -69 -1 -77 0 -29 9 -126 21 -215 7 -49 15 -115 19
-145 4 -39 10 -55 21 -55 12 0 16 17 19 80 6 137 5 292 -2 530 -11 341 -13
544 -6 533 4 -6 8 -5 11 3 8 25 29 -198 28 -298 -1 -54 3 -118 8 -143 6 -25
14 -108 17 -185 7 -148 19 -247 35 -290 6 -15 10 -43 10 -63 1 -20 7 -48 15
-62 12 -22 14 157 15 1378 l0 1402 -116 0 c-107 0 -116 -1 -109 -17 10 -25 12
-50 21 -270 6 -174 5 -193 -9 -193 -10 0 -18 12 -23 35 -3 19 -10 38 -16 41
-5 3 -8 67 -8 142 1 76 -2 165 -6 200 l-7 62 -276 0 -276 0 -30 -47 c-16 -27
-35 -59 -42 -73 -32 -58 -79 -120 -92 -120 -22 0 -60 40 -54 56 3 8 1 14 -5
14 -6 0 -12 -5 -14 -11 -2 -7 -13 -9 -26 -5 -16 5 -22 15 -22 35 0 16 -7 35
-17 42 -9 8 -22 29 -30 47 -14 33 -46 44 -56 20 -4 -10 -8 -10 -15 1 -8 11
-14 10 -36 -5 -14 -11 -26 -25 -26 -31 0 -7 -9 -13 -19 -13 -11 0 -23 -4 -26
-10 -9 -15 -25 -12 -25 4 0 14 -31 26 -90 32 -19 2 -51 6 -70 8 -26 3 -41 -1
-59 -17 -13 -12 -21 -17 -18 -11 8 13 -19 39 -50 48 -13 4 -23 13 -23 19 0 7
-4 6 -10 -3 -5 -8 -7 -32 -4 -52 6 -36 5 -37 -42 -58 -33 -15 -53 -19 -63 -13
-22 14 -24 31 -4 36 15 4 14 5 -3 6 -12 0 -25 -6 -28 -15 -3 -9 -13 -14 -21
-10 -14 5 -44 -33 -34 -43 2 -2 -5 -5 -16 -6 -11 -2 -28 -6 -37 -10 -10 -4
-18 -4 -18 -1 0 16 34 73 54 89 11 10 15 16 9 12 -20 -10 -15 14 7 32 11 10
20 23 20 30 0 24 -21 23 -55 -3 -30 -22 -33 -29 -23 -42 11 -13 10 -15 -3 -10
-14 5 -17 1 -15 -22 1 -16 -1 -28 -5 -27 -7 2 -59 -68 -59 -79 0 -3 -6 -11
-12 -19 -29 -29 -48 -56 -48 -65 0 -5 -8 -14 -17 -19 -10 -6 -15 -11 -11 -11
4 0 -5 -24 -21 -52 -18 -33 -35 -52 -45 -52 -9 1 -17 -6 -18 -15 -2 -31 -4
-36 -11 -48 -5 -7 -5 -17 -2 -23 3 -5 -10 -24 -29 -41 -20 -17 -36 -36 -36
-43 0 -6 7 -2 15 8 17 23 20 14 4 -15 -5 -11 -15 -16 -21 -13 -8 5 -9 1 -5
-10 6 -16 -6 -53 -22 -66 -9 -7 -45 -83 -46 -96 -1 -19 -38 -94 -47 -94 -12 0
-10 7 18 53 24 41 9 26 -31 -30 -25 -35 -30 -87 -8 -79 11 5 13 2 9 -10 -3 -8
-6 -20 -6 -25 0 -5 -4 -9 -10 -9 -5 0 -10 7 -10 16 0 14 -1 14 -16 0 -12 -12
-20 -14 -36 -5 -11 6 -21 9 -22 7 -1 -2 -14 -22 -29 -45 -15 -24 -23 -43 -18
-43 5 0 19 16 30 36 12 20 25 34 28 30 3 -3 0 -14 -9 -23 -24 -30 -59 -94 -54
-102 3 -4 -1 -8 -9 -8 -18 0 -19 9 -4 24 6 6 10 16 7 23 -2 6 -25 -23 -52 -64
-27 -44 -52 -73 -58 -70 -7 4 -8 2 -4 -4 6 -11 -102 -194 -128 -217 -9 -8 -20
-28 -54 -97 -2 -5 -1 -8 2 -8 2 0 22 25 44 56 22 31 44 56 48 57 5 1 8 7 6 14
-1 7 7 17 18 23 11 6 18 15 15 20 -8 13 20 52 30 42 5 -4 5 -1 1 6 -11 18 4
38 16 21 7 -10 8 -8 5 8 -3 15 -1 20 8 17 7 -3 16 4 20 15 3 12 11 21 16 21 5
0 9 7 9 15 0 8 5 15 10 15 6 0 10 -9 10 -20 0 -11 -6 -20 -13 -20 -8 0 -13
-15 -13 -42 0 -66 -8 -127 -16 -122 -4 2 -9 0 -12 -5 -4 -5 -2 -13 4 -16 8 -5
8 -11 0 -20 -15 -18 -2 -49 15 -35 10 8 15 6 19 -7 6 -19 16 -22 81 -26 33 -2
35 -4 29 -30 -10 -46 -24 -138 -29 -192 -8 -87 -12 -108 -40 -200 -16 -49 -37
-103 -49 -118 -21 -28 -21 -28 -37 -8 -21 26 -67 44 -95 37 -12 -3 -54 -10
-95 -16 -60 -9 -106 -25 -190 -67 -4 -1 -7 9 -7 23 1 30 -10 43 -21 25 -6 -9
-11 -10 -15 -2 -9 14 -36 15 -36 1 0 -5 7 -10 16 -10 11 0 14 -5 10 -16 -3 -9
-6 -18 -6 -20 0 -8 -40 -4 -65 8 -22 10 -28 9 -36 -3 -8 -12 -12 -11 -27 6 -9
11 -25 19 -35 17 -9 -2 -17 1 -17 7 0 6 11 11 25 11 32 0 52 41 26 52 -26 11
-29 9 -24 -12 4 -15 2 -19 -10 -14 -14 5 -14 9 1 39 9 18 20 31 24 29 4 -3 19
8 33 23 21 22 25 24 19 8 -13 -41 43 38 62 87 10 26 24 48 31 48 7 0 13 7 13
15 0 8 -7 15 -17 15 -15 0 -15 1 0 18 10 10 17 24 17 31 0 8 6 11 15 7 19 -7
19 -1 -1 19 -23 22 -9 31 19 12 23 -15 25 -14 35 9 8 17 8 23 0 21 -6 -1 -13
4 -15 11 -3 6 3 12 12 12 21 0 43 22 37 38 -2 7 5 12 16 12 16 0 19 6 17 42
-2 32 2 46 16 56 10 7 16 19 13 27 -4 8 -2 15 4 15 6 0 13 -6 15 -12 4 -10 6
-10 6 0 1 6 8 12 16 12 8 0 15 7 15 16 0 11 -6 13 -19 9 -11 -3 -22 -1 -26 5
-5 9 8 13 40 13 6 0 11 8 11 17 0 11 -6 16 -14 12 -8 -3 -4 6 9 19 13 14 30
25 38 24 21 0 24 21 6 39 -10 9 -12 16 -5 16 19 0 40 28 34 44 -5 12 -2 15 9
10 9 -3 13 -12 10 -20 -8 -22 5 -17 18 7 8 15 8 19 0 15 -6 -4 -11 -3 -11 3 0
5 -2 15 -5 23 -3 7 2 22 10 33 16 20 16 20 10 -2 -9 -33 0 -28 24 13 26 44 27
52 1 29 -18 -16 -17 -12 5 28 27 48 45 67 45 47 0 -6 5 -8 11 -4 8 4 7 9 -2
14 -10 7 -10 12 -1 23 7 7 8 17 4 21 -4 5 2 7 13 6 32 -4 41 0 26 9 -15 9 -14
12 44 107 l18 29 -27 -30 c-25 -27 -26 -28 -15 -5 28 61 73 120 80 108 6 -9
10 -8 14 4 4 10 4 21 1 26 -2 4 4 21 15 38 10 16 19 36 19 44 0 13 -1 13 -10
0 -5 -8 -10 -10 -10 -4 0 5 5 15 11 21 8 8 7 19 -3 41 -14 27 -13 32 6 63 13
21 27 33 37 31 13 -2 18 6 21 36 3 33 1 38 -14 34 -27 -7 -22 8 17 53 39 44
43 55 19 55 -14 0 -14 2 1 16 9 9 19 14 22 10 9 -8 43 45 43 67 0 32 42 109
53 98 7 -7 7 -19 -1 -36 -11 -23 -10 -26 5 -23 21 4 24 25 8 53 -14 23 -18 85
-5 85 5 0 11 -6 13 -12 2 -7 3 -1 1 14 -2 18 3 31 14 38 16 10 15 11 -2 8 -24
-4 -75 -96 -59 -106 7 -5 9 -13 4 -21 -7 -10 -13 -11 -30 -2 -18 10 -22 9 -27
-6 -15 -46 -16 -48 -21 -35 -3 6 -9 12 -15 12 -7 0 -6 -5 1 -14 14 -17 4 -42
-35 -89 -13 -16 -24 -34 -24 -41 0 -16 -38 -61 -45 -54 -10 10 7 38 23 38 12
0 13 3 4 12 -17 17 -15 38 3 38 8 0 15 4 15 9 0 19 -29 19 -65 0 -36 -19 -37
-14 -6 23 16 19 37 25 26 8 -9 -14 8 -12 24 3 9 7 11 7 8 1 -8 -14 20 -27 35
-18 5 4 8 17 5 30 -2 14 0 27 4 30 5 3 9 11 9 18 0 20 -52 6 -57 -15 -6 -21
-23 -26 -23 -6 0 6 9 27 20 45 16 25 18 37 10 47 -7 8 -7 15 -1 19 5 3 11 0
14 -6 2 -7 8 -1 12 15 8 29 15 33 32 16 12 -12 33 -4 33 12 0 6 -9 7 -20 4
-16 -5 -20 -2 -20 14 0 20 -5 21 -156 21 -149 0 -157 -1 -175 -22 l-20 -23 11
23 11 22 -496 0 -495 0 0 -761z m876 694 c-8 -15 -15 -22 -16 -15 0 17 20 55
27 49 2 -3 -2 -18 -11 -34z m125 10 c-12 -20 -14 -14 -5 12 4 9 9 14 11 11 3
-2 0 -13 -6 -23z m1953 15 c-18 -28 -39 -48 -53 -48 -10 0 -3 11 17 30 35 31
48 38 36 18z m96 -48 c-7 -16 -18 -34 -26 -41 -7 -6 -26 -36 -41 -66 -15 -30
-36 -63 -45 -73 -10 -11 -18 -23 -18 -28 0 -4 -5 -13 -11 -19 -9 -9 -18 -5
-36 12 l-25 23 18 33 c24 43 33 54 67 90 15 15 27 33 27 39 0 5 6 10 14 10 8
0 17 14 21 31 4 18 16 34 28 38 30 12 42 -12 27 -49z m150 34 c0 -8 -5 -12
-10 -9 -6 4 -8 11 -5 16 9 14 15 11 15 -7z m-300 -53 c0 -5 -7 -11 -15 -15
-15 -5 -20 5 -8 17 9 10 23 9 23 -2z m-1139 -68 c-12 -20 -14 -14 -5 12 4 9 9
14 11 11 3 -2 0 -13 -6 -23z m-480 -16 c-10 -9 -11 -8 -5 6 3 10 9 15 12 12 3
-3 0 -11 -7 -18z m109 -23 c0 -18 -4 -25 -14 -21 -8 3 -18 -5 -25 -20 -7 -14
-14 -23 -17 -20 -8 7 34 87 46 87 6 0 10 -12 10 -26z m1697 -20 c-10 -10 14
-64 29 -64 8 0 14 -4 14 -10 0 -5 -4 -10 -10 -10 -5 0 -10 -7 -10 -16 0 -14
-3 -14 -15 -4 -12 10 -15 9 -15 -5 0 -13 -3 -15 -12 -7 -7 6 -17 11 -23 11
-45 5 -69 45 -33 55 14 3 19 10 14 21 -4 11 -2 15 6 13 7 -3 19 1 26 9 7 7 18
13 24 13 6 0 9 -3 5 -6z m-1857 -68 c0 -7 -11 -25 -25 -40 -14 -15 -25 -31
-25 -37 0 -5 -4 -9 -10 -9 -14 0 -13 3 12 55 21 43 48 61 48 31z m-460 -16 c0
-5 -5 -10 -11 -10 -5 0 -7 5 -4 10 3 6 8 10 11 10 2 0 4 -4 4 -10z m2210 -1
c13 -9 12 -10 -2 -5 -12 3 -18 0 -18 -9 0 -20 -17 -28 -37 -17 -14 9 -14 10 5
16 12 4 22 12 22 17 0 12 11 11 30 -2z m215 -25 c0 -23 -57 -94 -75 -94 -3 0
-11 10 -19 21 -12 20 -11 21 4 15 15 -5 16 -4 5 9 -10 13 -9 15 9 15 11 0 21
5 21 12 0 15 30 48 45 48 6 0 11 -12 10 -26z m-2545 -14 c0 -5 -4 -10 -10 -10
-5 0 -10 5 -10 10 0 6 5 10 10 10 6 0 10 -4 10 -10z m553 -58 c-3 -12 -12 -22
-19 -22 -12 0 -11 5 2 25 19 30 26 28 17 -3z m-333 8 c0 -5 -5 -10 -11 -10 -5
0 -7 5 -4 10 3 6 8 10 11 10 2 0 4 -4 4 -10z m2387 -37 c-4 -27 -9 -70 -13
-97 -6 -39 -4 -48 7 -44 8 3 14 11 14 19 0 14 14 29 26 29 16 0 18 -34 4 -73
-8 -23 -15 -52 -15 -63 0 -27 -17 -41 -55 -46 -24 -2 -30 1 -30 17 -1 11 -6
19 -11 18 -7 -1 -9 9 -6 23 3 16 7 21 12 14 4 -7 12 1 20 21 13 30 12 33 -12
53 -14 12 -33 36 -42 54 -16 31 -16 36 -1 58 8 13 21 24 29 24 7 0 21 9 31 20
33 36 48 26 42 -27z m-2171 2 c-9 -9 -16 -13 -16 -8 0 12 22 34 28 28 2 -2 -3
-11 -12 -20z m-976 5 c0 -5 -4 -10 -10 -10 -5 0 -10 5 -10 10 0 6 5 10 10 10
6 0 10 -4 10 -10z m1048 -50 c-15 -24 -22 -19 -13 9 3 12 11 19 16 16 5 -4 3
-14 -3 -25z m2376 -27 c6 -30 19 -158 18 -183 -2 -137 -6 -181 -17 -190 -14
-12 -20 16 -30 145 -4 39 -8 78 -11 88 -3 9 -1 17 5 17 7 0 6 10 -1 30 -13 39
-2 120 17 120 7 0 16 -12 19 -27z m-3162 -5 c-7 -7 -12 -8 -12 -2 0 14 12 26
19 19 2 -3 -1 -11 -7 -17z m749 -25 c-12 -20 -14 -14 -5 12 4 9 9 14 11 11 3
-2 0 -13 -6 -23z m69 -33 c0 -5 -2 -10 -4 -10 -3 0 -8 5 -11 10 -3 6 -1 10 4
10 6 0 11 -4 11 -10z m18 -90 c-9 -14 -10 -23 -3 -28 15 -11 15 -42 -1 -42 -7
0 -20 -10 -28 -22 -9 -12 -16 -17 -16 -11 0 6 7 18 15 27 17 17 19 26 5 26 -5
0 -20 -16 -34 -36 l-24 -35 2 28 c2 32 14 56 25 49 11 -7 25 6 38 37 7 15 17
27 23 27 6 0 5 -8 -2 -20z m-702 -132 c-18 -26 -22 -17 -5 14 6 11 13 17 16
15 3 -3 -2 -16 -11 -29z m539 2 c3 -5 1 -10 -4 -10 -6 0 -11 5 -11 10 0 6 2
10 4 10 3 0 8 -4 11 -10z m75 -4 c0 -3 -4 -8 -10 -11 -5 -3 -10 -1 -10 4 0 6
5 11 10 11 6 0 10 -2 10 -4z m220 -100 c0 -3 -4 -8 -10 -11 -5 -3 -10 -1 -10
4 0 6 5 11 10 11 6 0 10 -2 10 -4z m-1272 -36 c-7 -10 -14 -17 -17 -15 -4 4
18 35 25 35 2 0 -1 -9 -8 -20z m972 16 c0 -3 -4 -8 -10 -11 -5 -3 -10 -1 -10
4 0 6 5 11 10 11 6 0 10 -2 10 -4z m2524 -135 c11 -17 19 -88 23 -201 2 -63 6
-133 8 -155 8 -76 8 -180 0 -204 l-8 -25 -13 27 c-8 15 -17 68 -20 119 -3 51
-9 149 -13 218 -5 69 -7 139 -6 155 1 17 3 40 4 53 1 22 15 30 25 13z m-2333
-46 c-1 -15 -24 -12 -29 3 -3 9 2 13 12 10 10 -1 17 -7 17 -13z m669 -29 c0
-3 -4 -8 -10 -11 -5 -3 -10 -1 -10 4 0 6 5 11 10 11 6 0 10 -2 10 -4z m-770
-26 c-6 -11 -13 -20 -16 -20 -2 0 0 9 6 20 6 11 13 20 16 20 2 0 0 -9 -6 -20z
m33 -17 c-3 -18 -9 -33 -14 -33 -12 0 -11 13 1 46 13 34 19 28 13 -13z m-999
-37 c-3 -9 -10 -16 -15 -16 -6 0 -5 9 1 21 13 24 24 20 14 -5z m441 -28 c-16
-24 -30 -37 -33 -30 -2 7 8 24 22 37 14 13 26 30 26 36 0 7 3 9 6 6 4 -4 -6
-26 -21 -49z m595 17 c-1 -9 27 -35 39 -35 12 0 15 -42 5 -53 -3 -3 -20 3 -36
13 -17 10 -37 16 -44 13 -21 -8 -17 21 7 51 19 24 33 29 29 11z m739 -27 c1
-5 -10 -8 -24 -8 -26 0 -26 0 -8 24 16 21 19 22 25 8 4 -10 7 -20 7 -24z
m-1709 -3 c0 -3 -9 -15 -20 -27 -15 -16 -20 -18 -20 -7 0 8 5 20 12 27 12 12
28 16 28 7z m434 -10 c-4 -8 -10 -15 -14 -15 -4 0 -10 -10 -13 -22 -4 -12 -9
-19 -13 -16 -7 8 26 68 38 68 4 0 5 -7 2 -15z m1212 0 c24 -18 7 -19 -26 0
-16 9 -19 14 -9 15 8 0 24 -7 35 -15z m-191 -31 c56 -38 87 -50 136 -52 17 -1
28 -9 32 -22 4 -15 14 -20 40 -20 32 0 54 -19 49 -43 -1 -4 12 -10 28 -14 36
-7 35 -24 -1 -34 -14 -3 -43 -18 -66 -32 -22 -14 -44 -23 -48 -19 -4 4 -5 -12
-4 -35 2 -32 -3 -50 -20 -73 -35 -48 -60 -55 -112 -32 -54 25 -135 24 -154 -1
-7 -9 -17 -17 -22 -17 -6 0 -15 -10 -22 -22 l-11 -23 6 23 c3 13 15 33 25 43
10 10 19 28 19 38 0 11 6 21 12 23 9 3 8 12 -5 31 -9 14 -17 31 -17 37 0 6 -7
18 -16 27 -21 21 -10 92 18 116 13 11 21 29 20 48 0 17 3 42 8 55 13 33 56 32
105 -2z m-464 -56 c9 -16 8 -19 -2 -13 -9 6 -11 3 -6 -8 4 -11 1 -17 -8 -17
-9 0 -12 -6 -9 -15 4 -8 1 -15 -5 -15 -6 0 -8 -6 -5 -14 3 -8 14 -13 25 -11
23 5 24 -4 5 -30 -12 -16 -16 -17 -30 -6 -9 7 -13 17 -10 22 3 5 1 9 -3 9 -5
0 -15 16 -22 36 -11 31 -11 38 3 52 10 11 16 12 16 4 0 -7 7 -12 16 -12 13 0
14 3 4 15 -13 15 -5 39 11 30 5 -4 14 -15 20 -27z m-1181 -138 c0 -5 -4 -10
-10 -10 -5 0 -10 5 -10 10 0 6 5 10 10 10 6 0 10 -4 10 -10z m640 -30 c0 -5
-7 -7 -15 -4 -8 4 -12 10 -9 15 6 11 24 2 24 -11z m-615 0 c-3 -5 -11 -10 -16
-10 -6 0 -7 5 -4 10 3 6 11 10 16 10 6 0 7 -4 4 -10z m-27 -32 c-2 -6 -10 -14
-16 -16 -7 -2 -10 2 -6 12 7 18 28 22 22 4z m663 -41 c-10 -9 -11 -8 -5 6 3
10 9 15 12 12 3 -3 0 -11 -7 -18z m-491 -46 c0 -6 -4 -13 -10 -16 -5 -3 -10 1
-10 9 0 9 5 16 10 16 6 0 10 -4 10 -9z m190 -35 c0 -8 -7 -16 -15 -20 -13 -4
-14 -2 -5 14 13 23 20 26 20 6z m152 -8 c-7 -7 -12 -8 -12 -2 0 14 12 26 19
19 2 -3 -1 -11 -7 -17z m-234 -13 c-6 -14 -13 -23 -15 -21 -5 5 15 46 22 46 3
0 -1 -11 -7 -25z m-206 -97 c-7 -7 -12 -8 -12 -2 0 14 12 26 19 19 2 -3 -1
-11 -7 -17z m1678 12 c0 -5 -7 -10 -16 -10 -8 0 -12 5 -9 10 3 6 10 10 16 10
5 0 9 -4 9 -10z m76 -25 c19 -14 19 -14 -2 -15 -11 0 -29 7 -40 15 -19 14 -19
14 2 15 11 0 29 -7 40 -15z m-1546 1 c0 -3 -4 -8 -10 -11 -5 -3 -10 -1 -10 4
0 6 5 11 10 11 6 0 10 -2 10 -4z m1225 -6 c3 -5 12 -7 20 -3 8 3 15 0 15 -6 0
-18 -52 -34 -61 -20 -8 14 -1 39 11 39 5 0 11 -4 15 -10z m448 -40 c31 -22 64
-40 72 -40 8 0 19 -9 25 -20 6 -11 19 -20 30 -20 15 0 18 -6 16 -27 -2 -16 -4
-30 -5 -32 0 -2 -13 4 -27 14 -16 10 -35 14 -50 11 -14 -4 -24 -2 -24 4 0 6
-12 15 -26 20 -14 6 -22 15 -18 21 5 8 9 8 14 -1 4 -7 12 -10 18 -6 6 3 13 2
17 -4 3 -5 10 -10 16 -10 18 0 9 16 -20 33 -28 16 -61 14 -61 -4 0 -5 -4 -9
-10 -9 -5 0 -10 11 -10 24 0 13 -11 34 -25 47 -56 54 -10 53 68 -1z m-1705 0
c-7 -10 -14 -18 -15 -16 -6 6 9 36 18 36 5 0 4 -9 -3 -20z m102 10 c0 -5 -5
-10 -11 -10 -5 0 -7 5 -4 10 3 6 8 10 11 10 2 0 4 -4 4 -10z m90 -4 c0 -2 -8
-10 -17 -17 -16 -13 -17 -12 -4 4 13 16 21 21 21 13z m-89 -39 c-10 -9 -11 -8
-5 6 3 10 9 15 12 12 3 -3 0 -11 -7 -18z m184 4 c-3 -6 -14 -11 -23 -11 -15 1
-15 2 2 15 21 16 32 13 21 -4z m-221 -16 c-6 -16 -24 -21 -24 -7 0 11 11 22
21 22 5 0 6 -7 3 -15z m-124 2 c0 -2 -10 -12 -21 -23 -22 -19 -22 -19 -8 4 12
19 29 30 29 19z m124 -42 c-4 -8 -11 -15 -16 -15 -6 0 -5 6 2 15 7 8 14 15 16
15 2 0 1 -7 -2 -15z m-82 -27 c-7 -7 -12 -8 -12 -2 0 14 12 26 19 19 2 -3 -1
-11 -7 -17z m181 -18 c-3 -11 -9 -17 -15 -14 -5 3 -4 12 3 20 16 19 18 18 12
-6z m1332 0 c3 -5 1 -10 -4 -10 -6 0 -11 5 -11 10 0 6 2 10 4 10 3 0 8 -4 11
-10z m-1735 -62 c10 -13 16 -26 13 -31 -4 -7 -43 35 -43 47 0 12 12 5 30 -16z
m1990 -282 c0 -3 -4 -8 -10 -11 -5 -3 -10 -1 -10 4 0 6 5 11 10 11 6 0 10 -2
10 -4z m-1993 -178 c-3 -8 -6 -5 -6 6 -1 11 2 17 5 13 3 -3 4 -12 1 -19z m33
-212 c-14 -14 -22 -2 -14 18 5 14 9 15 15 4 4 -7 4 -17 -1 -22z m105 13 c10
-15 -1 -23 -20 -15 -9 3 -13 10 -10 16 8 13 22 13 30 -1z m355 -19 c-34 -11
-60 -11 -35 0 11 5 29 8 40 8 16 0 15 -2 -5 -8z m-34 -60 c8 0 14 7 14 15 0
18 16 20 26 4 4 -8 9 -7 15 2 7 11 9 10 9 -3 0 -10 4 -18 8 -18 12 0 11 -32 0
-47 -12 -15 -4 -43 12 -43 5 0 10 9 10 20 0 11 5 20 10 20 16 0 11 -37 -5 -44
-11 -4 -15 -17 -14 -45 2 -23 -4 -49 -14 -65 -9 -14 -17 -32 -17 -40 0 -8 -3
-16 -7 -18 -5 -1 -18 -22 -31 -45 -23 -45 -46 -199 -30 -209 5 -3 5 -10 2 -16
-4 -7 -9 -6 -14 2 -5 7 -9 0 -12 -19 -3 -21 0 -31 9 -31 7 0 13 -7 13 -16 0
-8 -4 -12 -10 -9 -14 9 -13 -98 2 -130 8 -19 8 -34 0 -62 -8 -26 -8 -39 -1
-44 8 -5 8 -13 0 -28 -7 -12 -9 -26 -6 -31 3 -6 1 -10 -5 -10 -6 0 -15 10 -19
23 -5 12 -21 34 -35 49 -14 15 -26 39 -26 55 -4 202 6 306 41 428 33 111 38
135 43 218 2 43 10 84 16 92 8 10 8 19 1 34 -6 11 -10 26 -10 33 1 7 3 5 6 -4
2 -10 11 -18 19 -18z m872 -207 c3 -58 5 -68 16 -75 6 -5 1 -8 -11 -8 -21 0
-23 5 -23 55 0 56 14 78 18 28z m76 -52 c7 -11 -14 -20 -32 -13 -11 4 -11 6 0
13 17 11 26 11 32 0z m62 -25 c28 -21 14 -27 -30 -14 -31 10 -35 13 -20 19 27
11 28 11 50 -5z m211 -15 c-8 -37 1 -45 22 -21 14 16 22 17 71 8 82 -15 248
-98 196 -98 -9 0 -16 -12 -18 -32 -3 -35 -28 -52 -28 -19 0 12 5 21 10 21 6 0
10 5 10 10 0 22 -47 -22 -59 -55 -7 -19 -16 -35 -20 -35 -5 0 -14 -13 -20 -28
-7 -16 -21 -35 -33 -43 -11 -8 -33 -27 -47 -43 -14 -16 -41 -45 -58 -64 -18
-20 -33 -43 -33 -51 0 -9 -7 -27 -15 -41 -8 -14 -19 -37 -26 -53 -20 -49 -39
-34 -39 32 0 33 -4 63 -10 66 -12 8 -13 55 -1 74 5 8 14 10 22 5 12 -6 12 -5
0 9 -18 23 -38 6 -47 -39 -3 -19 -10 -34 -15 -34 -5 0 -9 -11 -9 -24 0 -24
-44 -111 -61 -121 -5 -4 -9 1 -9 9 0 26 -21 29 -46 5 -13 -12 -22 -25 -19 -27
6 -6 -14 -32 -25 -32 -4 0 6 26 22 57 22 43 25 58 16 65 -9 5 -7 8 7 9 11 0
15 3 9 5 -20 8 117 367 159 416 12 14 28 23 35 21 17 -6 15 -23 -3 -23 -8 0
-14 -3 -13 -7 4 -11 -35 -73 -45 -73 -4 0 -6 -4 -3 -9 3 -4 -8 -50 -24 -102
-17 -52 -29 -98 -27 -103 2 -5 19 33 39 85 59 151 69 168 96 158 22 -8 32 -49
12 -49 -5 0 -10 -9 -10 -20 0 -31 17 -24 31 13 7 17 14 35 17 40 2 4 -3 7 -12
7 -9 0 -16 5 -16 10 0 6 -7 10 -16 10 -11 0 -14 5 -10 16 14 38 17 62 7 69 -6
3 -9 10 -6 15 3 4 -13 3 -36 -2 -26 -7 -38 -15 -35 -23 9 -25 -30 -47 -73 -41
-44 6 -167 65 -138 66 10 0 15 5 12 10 -9 15 8 12 60 -10 26 -11 65 -20 88
-19 l42 1 -30 13 c-16 8 -24 14 -17 15 7 0 10 5 7 10 -5 7 11 9 47 5 29 -3 67
-1 83 4 17 5 32 10 34 10 2 1 1 -12 -2 -28z m-917 -56 c0 -8 -4 -15 -9 -15
-13 0 -22 16 -14 24 11 11 23 6 23 -9z m565 5 c3 -5 1 -10 -4 -10 -6 0 -11 5
-11 10 0 6 2 10 4 10 3 0 8 -4 11 -10z m-2 -61 c-7 -27 -21 -24 -18 4 4 40 5
42 14 28 5 -7 6 -22 4 -32z m-570 1 c3 -11 2 -20 -3 -20 -12 0 -31 26 -23 33
11 12 21 7 26 -13z m297 -31 c0 -21 5 -39 11 -39 6 0 8 -9 4 -21 -5 -15 -4
-19 4 -15 10 6 15 -5 12 -26 0 -3 6 -28 14 -55 9 -26 18 -66 21 -88 4 -22 13
-52 20 -67 17 -33 18 -78 2 -78 -6 0 -9 3 -5 6 7 8 -21 83 -40 105 -11 14 -18
51 -22 122 -1 10 -5 16 -10 13 -11 -7 -21 17 -21 49 0 13 -8 28 -17 34 -15 8
-16 12 -5 22 6 7 12 30 12 52 0 23 4 36 10 32 6 -3 10 -24 10 -46z m429 41
c19 0 5 -13 -18 -17 -11 -1 -25 5 -32 14 -13 15 -11 16 11 10 14 -4 31 -7 39
-7z m-160 -67 c2 -44 6 -63 12 -63 13 0 18 29 6 33 -21 8 -2 16 43 19 55 4 64
-17 26 -66 -14 -19 -23 -36 -21 -38 3 -3 -16 -4 -41 -4 -35 1 -42 -1 -29 -9 9
-5 24 -15 33 -22 15 -10 14 -11 -6 -6 -18 4 -21 2 -16 -12 6 -14 3 -16 -17
-10 -13 4 -26 9 -28 11 -7 6 23 184 30 184 4 0 8 -8 8 -17z m-1183 -30 c-11
-11 -19 6 -11 24 8 17 8 17 12 0 3 -10 2 -21 -1 -24z m684 -7 c0 -3 -4 -8 -10
-11 -5 -3 -10 -1 -10 4 0 6 5 11 10 11 6 0 10 -2 10 -4z m470 -203 c0 -24 -3
-33 -9 -25 -7 12 -4 62 5 62 2 0 4 -17 4 -37z m-13 -80 c-3 -10 -5 -4 -5 12 0
17 2 24 5 18 2 -7 2 -21 0 -30z m593 -81 c0 -10 5 -23 12 -30 9 -9 8 -12 -6
-12 -9 0 -14 4 -11 10 3 6 2 10 -3 10 -5 0 -12 -9 -15 -21 -7 -27 -31 -20 -35
10 -5 35 5 51 33 51 17 0 25 -5 25 -18z m-415 -13 c4 -12 2 -26 -4 -32 -15
-15 -44 14 -35 36 9 24 31 21 39 -4z m315 -10 c0 -5 -14 -9 -31 -9 -20 0 -28
-4 -23 -12 4 -7 3 -8 -4 -4 -17 11 -15 24 6 28 35 7 52 7 52 -3z"/>
<path d="M1130 2989 c0 -5 5 -7 10 -4 6 3 10 8 10 11 0 2 -4 4 -10 4 -5 0 -10
-5 -10 -11z"/>
<path d="M480 839 c0 -5 5 -7 10 -4 6 3 10 8 10 11 0 2 -4 4 -10 4 -5 0 -10
-5 -10 -11z"/>
<path d="M448 198 c2 -10 9 -17 15 -15 19 6 18 24 -1 29 -15 4 -18 1 -14 -14z"/>
<path d="M1435 630 c3 -5 8 -10 11 -10 2 0 4 5 4 10 0 6 -5 10 -11 10 -5 0 -7
-4 -4 -10z"/>
<path d="M1768 603 c6 -2 18 -2 25 0 6 3 1 5 -13 5 -14 0 -19 -2 -12 -5z"/>
<path d="M1746 554 c-4 -9 -4 -19 -1 -22 2 -3 7 3 11 12 4 9 4 19 1 22 -2 3
-7 -3 -11 -12z"/>
<path d="M1393 3715 c-3 -9 -3 -18 0 -21 9 -9 27 6 27 22 0 19 -19 18 -27 -1z"/>
<path d="M1643 3723 c-7 -2 -13 -13 -13 -24 0 -11 -12 -37 -26 -59 -16 -24
-23 -46 -20 -58 4 -11 0 -24 -9 -32 -8 -7 -15 -9 -15 -5 0 4 -7 2 -15 -5 -8
-6 -18 -9 -24 -6 -5 3 -7 -3 -4 -14 4 -13 0 -20 -9 -20 -18 0 -51 -34 -41 -43
11 -12 21 -8 28 12 4 12 12 18 21 14 7 -3 14 1 14 8 0 7 3 10 6 7 3 -4 -2 -18
-11 -32 -10 -14 -13 -26 -8 -26 4 0 19 20 33 45 14 25 28 45 31 45 13 0 28 59
17 62 -12 4 19 58 33 58 5 0 9 8 9 19 0 10 7 24 15 31 26 22 18 36 -12 23z"/>
<path d="M1707 3706 c-10 -14 -13 -26 -8 -26 13 0 33 28 29 41 -2 6 -12 0 -21
-15z"/>
<path d="M1882 3700 c1 -23 5 -29 15 -25 8 3 17 5 19 5 2 0 4 7 4 16 0 8 4 13
9 10 5 -3 14 1 21 9 11 13 7 15 -28 15 -39 0 -41 -1 -40 -30z"/>
<path d="M1968 3708 c-12 -18 -13 -26 -3 -35 10 -9 15 -6 24 14 16 35 -1 51
-21 21z"/>
<path d="M2761 3679 c-34 -52 -38 -81 -4 -34 10 14 29 39 41 56 17 21 20 29
10 29 -8 0 -29 -23 -47 -51z"/>
<path d="M1750 3679 c0 -5 5 -7 10 -4 6 3 10 8 10 11 0 2 -4 4 -10 4 -5 0 -10
-5 -10 -11z"/>
<path d="M1946 3657 c3 -10 9 -15 12 -12 3 3 0 11 -7 18 -10 9 -11 8 -5 -6z"/>
<path d="M1312 3639 c-7 -12 -11 -24 -7 -27 7 -8 25 17 25 36 0 17 -3 15 -18
-9z"/>
<path d="M1867 3639 c-9 -10 -21 -28 -27 -41 -9 -19 -7 -18 10 5 12 15 25 25
30 22 4 -3 13 2 20 10 7 8 17 12 24 8 6 -3 8 -2 3 2 -13 15 -45 12 -60 -6z"/>
<path d="M1540 3590 c0 -5 5 -10 10 -10 6 0 10 5 10 10 0 6 -4 10 -10 10 -5 0
-10 -4 -10 -10z"/>
<path d="M1566 3478 l-18 -33 21 25 c18 22 26 40 18 40 -1 0 -11 -15 -21 -32z"/>
<path d="M1396 3445 c4 -8 7 -15 9 -15 2 0 5 7 9 15 3 9 0 15 -9 15 -9 0 -12
-6 -9 -15z"/>
<path d="M1440 3425 c0 -9 6 -12 18 -9 15 5 15 4 -2 -10 -10 -8 -23 -13 -27
-10 -4 2 -11 -11 -14 -30 -4 -19 -22 -58 -41 -86 -33 -50 -48 -94 -19 -56 20
27 19 11 -1 -19 -13 -20 -14 -28 -4 -40 13 -15 30 -12 30 7 0 5 -7 8 -15 5 -8
-4 1 17 20 46 19 29 42 66 50 82 16 29 16 29 -2 9 -10 -11 -26 -31 -35 -45
l-17 -24 12 30 c15 38 68 117 74 111 3 -2 -1 -15 -7 -28 -11 -22 -11 -22 9 2
23 29 26 40 9 40 -6 0 -8 3 -5 7 8 7 -11 33 -24 33 -5 0 -9 -7 -9 -15z"/>
<path d="M1387 3403 c-4 -3 -7 -11 -7 -17 0 -6 5 -5 12 2 6 6 9 14 7 17 -3 3
-9 2 -12 -2z"/>
<path d="M1354 3379 c-3 -6 -2 -15 3 -20 5 -5 9 -1 10 11 2 22 -2 25 -13 9z"/>
<path d="M1467 3333 c-10 -9 -9 -23 2 -23 5 0 11 7 15 15 5 15 -5 20 -17 8z"/>
<path d="M1351 3291 c-8 -5 -10 -14 -6 -21 6 -9 10 -8 17 4 12 21 7 28 -11 17z"/>
<path d="M1490 3280 c0 -5 5 -10 10 -10 6 0 10 5 10 10 0 6 -4 10 -10 10 -5 0
-10 -4 -10 -10z"/>
<path d="M1435 3241 c-6 -11 9 -23 19 -14 9 9 7 23 -3 23 -6 0 -12 -4 -16 -9z"/>
<path d="M1400 3209 c0 -5 5 -7 10 -4 6 3 10 8 10 11 0 2 -4 4 -10 4 -5 0 -10
-5 -10 -11z"/>
<path d="M1320 3200 c0 -6 -11 -15 -25 -20 -14 -5 -25 -15 -25 -22 0 -9 3 -9
12 0 22 22 32 12 10 -11 -28 -29 -29 -46 -2 -22 11 10 20 14 20 8 0 -6 -9 -22
-20 -36 -21 -27 -25 -37 -12 -37 14 0 63 98 52 105 -8 5 -8 11 0 20 8 9 8 15
0 20 -5 3 -10 1 -10 -5z"/>
<path d="M1426 3074 c-4 -9 -4 -19 -1 -22 2 -3 7 3 11 12 4 9 4 19 1 22 -2 3
-7 -3 -11 -12z"/>
<path d="M2010 3050 c-22 -17 -23 -19 -7 -25 23 -9 47 1 47 19 0 24 -14 26
-40 6z"/>
<path d="M1256 3041 c-4 -7 -5 -15 -2 -18 9 -9 19 4 14 18 -4 11 -6 11 -12 0z"/>
<path d="M1960 2976 c0 -9 5 -16 10 -16 6 0 10 4 10 9 0 6 -4 13 -10 16 -5 3
-10 -1 -10 -9z"/>
<path d="M1235 2960 c-3 -5 -1 -10 4 -10 6 0 11 5 11 10 0 6 -2 10 -4 10 -3 0
-8 -4 -11 -10z"/>
<path d="M1323 2913 c-9 -16 -29 -44 -44 -63 -35 -46 -44 -76 -25 -83 8 -3 17
1 20 9 3 9 1 12 -4 9 -6 -3 -10 -2 -10 4 0 6 9 15 20 21 11 6 18 16 14 21 -3
6 2 23 13 37 25 34 45 72 39 72 -3 0 -13 -12 -23 -27z"/>
<path d="M1135 2800 c-3 -5 -1 -10 4 -10 6 0 11 5 11 10 0 6 -2 10 -4 10 -3 0
-8 -4 -11 -10z"/>
<path d="M1162 2708 c-7 -7 -12 -16 -12 -21 0 -5 7 -1 16 8 9 9 14 18 12 20
-2 3 -10 -1 -16 -7z"/>
<path d="M1000 2485 c0 -9 5 -15 11 -13 6 2 11 8 11 13 0 5 -5 11 -11 13 -6 2
-11 -4 -11 -13z"/>
<path d="M2377 2490 c-41 -13 -72 -50 -73 -90 -1 -19 -6 -52 -12 -72 -11 -41
-10 -43 19 -28 13 7 19 7 19 0 0 -5 -4 -10 -10 -10 -16 0 -12 -47 5 -54 8 -3
15 -11 15 -18 0 -10 -2 -10 -8 -1 -4 7 -13 9 -21 4 -30 -19 56 -127 124 -155
51 -22 92 -21 105 3 8 15 20 19 54 18 53 -2 89 25 107 82 6 20 15 41 20 46 4
6 11 29 15 52 12 78 -49 163 -118 163 -10 0 -29 6 -41 14 -38 25 -122 45 -140
34 -12 -6 -17 -6 -15 3 4 16 -11 19 -45 9z m160 -206 c18 -14 31 -30 27 -35
-3 -5 0 -17 8 -27 7 -9 -7 0 -31 21 -25 20 -51 37 -59 37 -12 0 -12 3 -2 15
16 20 17 19 57 -11z m-150 -41 c-3 -3 -11 -2 -17 2 -9 6 -9 10 1 16 14 8 27
-7 16 -18z m83 7 c0 -5 -4 -10 -10 -10 -5 0 -10 5 -10 10 0 6 5 10 10 10 6 0
10 -4 10 -10z m-33 -63 c41 -20 43 -20 63 -2 19 18 20 18 20 -3 0 -11 -8 -22
-17 -24 -22 -5 -92 15 -101 28 -4 5 -18 15 -32 22 l-25 12 25 -6 c14 -3 44
-15 67 -27z m-7 -48 c23 -19 43 -28 51 -24 8 6 10 4 4 -4 -11 -19 -52 -5 -89
29 -41 40 -15 38 34 -1z m90 -49 c0 -5 -10 -10 -22 -10 -19 0 -20 2 -8 10 19
13 30 13 30 0z"/>
<path d="M935 2459 c-4 -6 -5 -13 -2 -16 7 -7 27 6 27 18 0 12 -17 12 -25 -2z"/>
<path d="M1063 2359 c-2 -23 3 -25 10 -4 4 8 3 16 -1 19 -4 3 -9 -4 -9 -15z"/>
<path d="M1047 2252 c-11 -2 -16 -10 -13 -17 2 -7 -2 -16 -10 -19 -9 -3 -12
-11 -8 -17 4 -7 1 -10 -7 -7 -8 3 -13 15 -12 27 4 29 -2 27 -27 -15 -13 -19
-33 -40 -47 -45 -13 -5 -22 -13 -18 -19 3 -5 -4 -19 -16 -31 -17 -17 -19 -23
-8 -30 9 -6 17 -4 24 7 74 117 73 115 73 88 0 -14 -11 -37 -24 -51 -16 -17
-22 -33 -18 -45 3 -10 2 -18 -3 -17 -21 4 -32 -2 -27 -16 7 -18 -18 -45 -41
-45 -13 0 -16 -6 -13 -25 3 -14 2 -25 -1 -25 -3 0 -12 -13 -19 -28 -7 -16 -19
-29 -26 -29 -12 0 -11 7 3 36 44 88 50 101 43 101 -4 0 -16 -14 -27 -30 -11
-16 -23 -30 -27 -30 -5 0 -8 -8 -8 -18 0 -9 -9 -23 -19 -29 -11 -7 -26 -25
-33 -40 -8 -15 -19 -27 -26 -26 -14 3 -26 -33 -16 -49 5 -7 2 -9 -8 -5 -12 4
-17 -2 -20 -23 -3 -17 0 -28 6 -27 6 1 10 -11 9 -27 -2 -31 12 -66 27 -66 6 0
10 9 10 20 0 11 6 20 13 20 7 0 23 18 36 40 12 22 26 40 32 40 5 0 9 7 9 15 0
8 9 19 21 26 14 7 19 17 16 30 -3 10 -1 22 4 25 5 3 6 11 3 17 -4 7 -4 9 1 5
10 -9 56 56 53 73 -2 7 11 22 29 34 18 12 30 25 26 28 -3 4 11 29 31 57 20 27
36 53 36 57 0 4 9 26 21 50 23 48 22 60 -4 55z m-253 -395 c8 -6 7 -10 -1 -14
-7 -2 -13 -11 -13 -19 0 -8 -3 -14 -8 -14 -4 0 -16 -12 -26 -27 -9 -16 -15
-20 -12 -11 3 10 -2 21 -11 27 -14 7 -14 10 5 20 13 7 22 21 22 36 0 24 22 40
29 21 2 -6 9 -15 15 -19z m-81 -98 c-17 -17 -36 -1 -20 16 7 8 16 10 22 4 5
-6 5 -13 -2 -20z"/>
<path d="M840 2168 c-22 -36 -22 -49 1 -35 10 6 19 15 19 19 0 3 3 13 6 22 9
24 -9 19 -26 -6z"/>
<path d="M1061 2148 c-8 -18 -18 -41 -22 -50 -5 -11 -4 -18 2 -18 6 0 13 9 16
20 3 10 13 22 22 25 18 6 25 55 7 55 -6 0 -18 -15 -25 -32z"/>
<path d="M770 2089 c0 -5 5 -7 10 -4 6 3 10 8 10 11 0 2 -4 4 -10 4 -5 0 -10
-5 -10 -11z"/>
<path d="M763 2043 c-16 -21 -38 -54 -49 -73 -27 -49 -41 -63 -47 -47 -5 14
-33 -17 -41 -46 -4 -15 -2 -16 10 -6 18 15 20 -11 2 -29 -10 -10 -10 -15 2
-22 11 -7 18 -2 29 20 8 17 18 30 23 30 4 0 8 7 8 15 0 8 9 24 21 36 11 11 18
26 16 32 -4 14 16 37 33 37 7 0 9 7 6 16 -3 8 2 26 10 40 27 40 9 38 -23 -3z"/>
<path d="M812 2068 c7 -19 38 -22 38 -4 0 10 -9 16 -21 16 -12 0 -19 -5 -17
-12z"/>
<path d="M1053 1993 c-7 -2 -13 -16 -13 -29 0 -15 -6 -24 -15 -24 -8 0 -15 -7
-15 -15 0 -19 6 -19 28 3 9 9 16 25 14 35 -2 10 3 17 12 17 9 0 16 5 16 10 0
11 -7 12 -27 3z"/>
<path d="M657 1983 c-12 -12 -7 -25 7 -20 10 4 12 0 8 -16 -3 -12 -3 -20 -1
-17 2 3 13 16 24 29 11 14 14 21 7 17 -7 -4 -19 -3 -26 3 -7 6 -16 8 -19 4z"/>
<path d="M2700 1981 c-8 -6 -17 -8 -21 -6 -7 5 -22 -56 -15 -62 2 -3 7 5 11
16 3 12 10 21 15 21 5 0 14 9 20 20 12 22 11 24 -10 11z"/>
<path d="M1140 1951 c0 -17 12 -41 21 -41 5 0 9 11 9 25 0 16 -6 25 -15 25 -8
0 -15 -4 -15 -9z"/>
<path d="M1102 1895 c-13 -19 -22 -40 -19 -47 4 -8 6 -7 6 5 1 9 6 17 12 17 6
0 17 7 25 15 9 8 11 15 5 15 -6 0 -8 7 -5 15 10 24 1 17 -24 -20z"/>
<path d="M890 1900 c0 -5 5 -10 10 -10 6 0 10 5 10 10 0 6 -4 10 -10 10 -5 0
-10 -4 -10 -10z"/>
<path d="M2578 1813 c-29 -34 -30 -48 -2 -21 15 15 26 30 23 33 -3 3 -13 -3
-21 -12z"/>
<path d="M605 1790 c3 -5 11 -10 16 -10 6 0 7 5 4 10 -3 6 -11 10 -16 10 -6 0
-7 -4 -4 -10z"/>
<path d="M847 1780 c-3 -13 0 -20 9 -20 8 0 14 9 14 20 0 11 -4 20 -9 20 -5 0
-11 -9 -14 -20z"/>
<path d="M517 1751 c-3 -14 -1 -18 9 -14 8 3 14 11 14 19 0 21 -17 17 -23 -5z"/>
<path d="M557 1740 c3 -9 -7 -30 -21 -47 -27 -32 -33 -53 -17 -53 6 0 16 9 24
20 8 11 16 18 19 15 8 -8 24 17 32 46 5 22 2 27 -18 31 -18 4 -22 1 -19 -12z
m23 -24 c0 -3 -4 -8 -10 -11 -5 -3 -10 -1 -10 4 0 6 5 11 10 11 6 0 10 -2 10
-4z"/>
<path d="M637 1724 c-4 -4 -7 -14 -7 -23 0 -11 3 -12 11 -4 6 6 10 16 7 23 -2
6 -7 8 -11 4z"/>
<path d="M2125 1611 c-3 -5 -1 -12 5 -16 5 -3 10 1 10 9 0 18 -6 21 -15 7z"/>
<path d="M2533 1483 c9 -9 20 -13 24 -9 4 4 1 11 -7 16 -25 16 -35 11 -17 -7z"/>
<path d="M2480 1387 c0 -8 -8 -17 -18 -19 -9 -3 -28 -26 -41 -51 -13 -26 -27
-47 -30 -47 -6 0 -25 -40 -35 -76 -5 -14 -1 -24 9 -27 8 -4 12 -13 9 -21 -3
-8 -1 -17 4 -20 10 -6 34 16 31 30 -7 38 4 84 24 105 13 13 29 39 36 57 8 17
17 32 21 32 15 0 18 29 4 40 -11 10 -14 9 -14 -3z"/>
<path d="M2559 800 c13 -11 33 -20 45 -20 16 1 11 6 -18 20 -50 25 -58 25 -27
0z"/>
<path d="M2465 733 c-27 -6 -45 -31 -45 -64 0 -15 -7 -34 -15 -43 -8 -8 -15
-19 -15 -24 0 -6 -14 -41 -31 -79 -76 -170 -110 -332 -84 -412 8 -26 29 -23
33 5 5 32 33 127 49 164 46 106 152 313 186 362 41 59 42 80 4 72 -12 -3 -30
-6 -39 -7 -10 -1 -31 -15 -48 -30 -16 -16 -30 -25 -30 -20 0 15 31 54 39 49 4
-3 12 4 19 15 12 19 11 20 -23 12z"/>
<path d="M3715 720 c3 -5 8 -10 11 -10 2 0 4 5 4 10 0 6 -5 10 -11 10 -5 0 -7
-4 -4 -10z"/>
<path d="M2657 631 c-37 -35 -68 -78 -101 -143 -26 -51 -55 -106 -65 -123 -10
-16 -16 -33 -14 -37 2 -5 -3 -8 -11 -8 -9 0 -16 -9 -16 -20 0 -11 -4 -20 -8
-20 -5 0 -14 -26 -21 -58 -18 -82 -33 -121 -49 -127 -12 -4 -13 4 -8 42 3 27
3 41 -1 33 -3 -8 -21 -50 -39 -92 l-32 -78 69 0 c62 0 69 2 69 20 0 22 20 70
29 70 4 0 7 9 8 20 1 11 11 32 22 46 12 15 21 35 21 46 0 10 8 35 19 56 10 20
31 75 46 122 36 109 87 219 121 259 43 52 19 47 -39 -8z"/>
<path d="M2732 512 c-12 -14 -22 -32 -22 -38 0 -7 -11 -22 -25 -35 -41 -39
-32 -77 13 -53 20 10 28 10 34 1 11 -17 19 -3 21 37 1 21 7 36 15 36 17 0 15
11 -5 25 -14 11 -15 16 -5 28 7 8 9 18 4 21 -5 3 -19 -7 -30 -22z"/>
<path d="M3298 388 c-18 -11 -37 -27 -41 -34 -4 -8 -12 -14 -18 -14 -5 0 -21
-12 -35 -27 -19 -20 -24 -34 -19 -57 4 -24 3 -26 -4 -11 -8 18 -10 18 -16 3
-10 -26 -2 -51 22 -63 11 -6 29 -17 38 -25 11 -9 39 -15 71 -15 46 0 57 -4 86
-32 19 -18 42 -33 53 -33 40 0 84 -24 96 -52 11 -28 12 -28 105 -28 l94 0 0
84 c0 79 -2 85 -22 92 -13 4 -34 16 -48 26 -14 11 -48 34 -75 51 -61 39 -168
117 -176 130 -3 4 -22 12 -42 17 -28 6 -43 3 -69 -12z"/>
<path d="M2730 356 c0 -9 -6 -16 -12 -16 -7 0 -31 -29 -53 -65 -22 -36 -42
-65 -46 -65 -4 0 -10 -8 -13 -17 -15 -42 -77 -133 -90 -133 -6 0 -17 -13 -23
-30 l-11 -30 39 0 c28 0 39 4 39 15 0 8 4 15 8 15 7 0 61 83 164 248 21 34 27
83 11 89 -7 3 -13 -2 -13 -11z"/>
<path d="M2827 289 c-49 -32 -90 -80 -121 -141 -10 -20 -35 -54 -55 -75 -69
-72 -70 -73 -18 -73 44 0 48 2 85 53 39 52 56 91 67 156 3 18 16 42 28 51 83
66 89 79 14 29z"/>
<path d="M3085 240 c3 -5 13 -10 21 -10 8 0 14 5 14 10 0 6 -9 10 -21 10 -11
0 -17 -4 -14 -10z"/>
<path d="M2820 229 c0 -5 5 -7 10 -4 6 3 10 8 10 11 0 2 -4 4 -10 4 -5 0 -10
-5 -10 -11z"/>
<path d="M2935 109 c-45 -35 -108 -76 -145 -96 l-25 -13 33 0 c24 0 49 13 95
49 62 49 103 91 89 91 -4 0 -25 -14 -47 -31z"/>
<path d="M3134 9 c-3 -5 11 -9 31 -9 20 0 34 4 31 9 -3 5 -17 9 -31 9 -14 0
-28 -4 -31 -9z"/>
</g>
</svg>
